<svg width="127" height="24" viewBox="0 0 127 24" fill="none" xmlns="http://www.w3.org/2000/svg">
<path d="M0.0227273 24V0.727272H15.7045V4.78409H4.94318V10.3295H14.8977V14.3864H4.94318V19.9432H15.75V24H0.0227273ZM19.6165 0.727272H25.6847L32.0938 16.3636H32.3665L38.7756 0.727272H44.8438V24H40.071V8.85227H39.8778L33.8551 23.8864H30.6051L24.5824 8.79545H24.3892V24H19.6165V0.727272ZM53.8182 0.727272V24H48.8977V0.727272H53.8182ZM77.3324 0.727272V24H73.0824L62.9574 9.35227H62.7869V24H57.8665V0.727272H62.1847L72.2301 15.3636H72.4347V0.727272H77.3324ZM81.3977 24V0.727272H97.0795V4.78409H86.3182V10.3295H96.2727V14.3864H86.3182V19.9432H97.125V24H81.3977ZM100.991 0.727272H107.06L113.469 16.3636H113.741L120.151 0.727272H126.219V24H121.446V8.85227H121.253L115.23 23.8864H111.98L105.957 8.79545H105.764V24H100.991V0.727272Z" fill="black"/>
</svg>
